<?xml version="1.0" standalone="no"?>
<!DOCTYPE svg PUBLIC "-//W3C//DTD SVG 20010904//EN"
 "http://www.w3.org/TR/2001/REC-SVG-20010904/DTD/svg10.dtd">
<svg version="1.0" xmlns="http://www.w3.org/2000/svg"
 width="400.000000pt" height="400.000000pt" viewBox="0 0 400.000000 400.000000"
 preserveAspectRatio="xMidYMid meet">
<metadata>
Created by potrace 1.14, written by Peter Selinger 2001-2017
</metadata>
<g transform="translate(0.000000,400.000000) scale(0.100000,-0.100000)"
fill="#000000" stroke="none">
<path d="M1914 3761 c-2 -2 -30 -5 -61 -6 -32 -2 -58 -3 -58 -4 0 -1 -18 -4
-40 -6 -22 -2 -51 -6 -65 -9 -13 -3 -42 -8 -64 -12 -22 -3 -44 -8 -48 -10 -4
-3 -16 -7 -26 -9 -87 -16 -280 -89 -381 -143 -157 -84 -301 -190 -415 -307
-70 -71 -166 -190 -166 -204 0 -6 -4 -11 -10 -11 -5 0 -10 -4 -10 -10 0 -5
-16 -34 -35 -64 -30 -48 -60 -107 -100 -201 -15 -34 -54 -166 -62 -205 -24
-126 -31 -202 -28 -325 2 -77 6 -151 10 -165 3 -14 7 -36 10 -50 12 -80 61
-244 89 -295 5 -11 11 -22 11 -25 1 -3 16 -34 34 -70 91 -177 272 -388 439
-510 82 -60 89 -68 90 -100 0 -30 9 -43 62 -91 42 -38 61 -63 58 -75 -4 -24
-86 -67 -176 -92 -59 -17 -96 -19 -234 -17 -204 3 -199 2 -197 18 1 6 1 20 0
30 -3 44 -109 47 -128 4 -7 -16 -11 -284 -4 -317 1 -6 43 -24 81 -36 14 -4
185 -9 380 -10 329 -3 386 -5 495 -19 22 -3 56 -7 75 -9 19 -2 51 -6 70 -10
19 -3 51 -8 70 -11 103 -16 104 -16 111 -70 3 -28 7 -47 7 -44 1 4 19 3 40 -2
92 -21 412 -32 487 -17 17 4 38 7 47 7 28 2 45 27 42 65 -2 19 1 38 6 41 4 3
53 14 107 26 54 11 107 23 118 25 11 3 38 7 60 9 22 3 49 6 60 9 80 16 207 25
355 25 370 -2 518 8 557 36 15 11 17 30 15 165 -1 84 -4 161 -7 170 -10 32
-92 41 -120 14 -9 -9 -13 -24 -10 -35 4 -12 1 -19 -7 -20 -7 -1 -29 -3 -48 -5
-221 -24 -443 11 -502 79 -10 11 -18 22 -18 25 0 3 17 22 38 41 52 49 82 94
82 123 0 17 16 35 62 68 84 62 234 210 296 295 28 39 55 75 60 80 4 6 17 26
28 45 10 19 21 37 24 40 17 17 98 201 122 275 16 51 42 172 53 245 8 48 8 289
1 330 -2 14 -7 43 -10 65 -9 55 -56 223 -75 265 -8 19 -15 37 -16 40 -1 3 -9
22 -18 44 -9 21 -17 42 -17 47 0 5 -4 9 -10 9 -5 0 -10 4 -10 10 0 12 -79 145
-100 168 -8 10 -35 43 -59 75 -63 83 -207 216 -315 292 -52 36 -99 65 -105 65
-6 0 -11 5 -11 10 0 6 -4 10 -10 10 -5 0 -33 14 -62 31 -29 17 -54 31 -55 30
-2 0 -27 10 -55 22 -121 53 -320 113 -411 122 -23 3 -53 7 -67 10 -14 3 -63 8
-110 10 -47 2 -85 5 -85 5 0 4 -127 4 -131 1z"/>
</g>
</svg>
