<?xml version="1.0" standalone="no"?>
<!DOCTYPE svg PUBLIC "-//W3C//DTD SVG 20010904//EN"
 "http://www.w3.org/TR/2001/REC-SVG-20010904/DTD/svg10.dtd">
<svg version="1.0" xmlns="http://www.w3.org/2000/svg"
 width="400.000000pt" height="400.000000pt" viewBox="0 0 400.000000 400.000000"
 preserveAspectRatio="xMidYMid meet">
<metadata>
Created by potrace 1.14, written by Peter Selinger 2001-2017
</metadata>
<g transform="translate(0.000000,400.000000) scale(0.100000,-0.100000)"
fill="#000000" stroke="none">
<path d="M1938 3693 c34 -2 90 -2 125 0 34 2 6 3 -63 3 -69 0 -97 -1 -62 -3z"/>
<path d="M1788 3683 c12 -2 30 -2 40 0 9 3 -1 5 -23 4 -22 0 -30 -2 -17 -4z"/>
<path d="M2178 3683 c12 -2 30 -2 40 0 9 3 -1 5 -23 4 -22 0 -30 -2 -17 -4z"/>
<path d="M1713 3673 c9 -2 23 -2 30 0 6 3 -1 5 -18 5 -16 0 -22 -2 -12 -5z"/>
<path d="M1943 3673 c32 -2 81 -2 110 0 29 2 3 3 -58 3 -60 0 -84 -1 -52 -3z"/>
<path d="M2253 3673 c9 -2 25 -2 35 0 9 3 1 5 -18 5 -19 0 -27 -2 -17 -5z"/>
<path d="M1658 3663 c7 -3 16 -2 19 1 4 3 -2 6 -13 5 -11 0 -14 -3 -6 -6z"/>
<path d="M1808 3663 c12 -2 30 -2 40 0 9 3 -1 5 -23 4 -22 0 -30 -2 -17 -4z"/>
<path d="M2163 3663 c9 -2 25 -2 35 0 9 3 1 5 -18 5 -19 0 -27 -2 -17 -5z"/>
<path d="M2318 3663 c7 -3 16 -2 19 1 4 3 -2 6 -13 5 -11 0 -14 -3 -6 -6z"/>
<path d="M1608 3653 c6 -2 18 -2 25 0 6 3 1 5 -13 5 -14 0 -19 -2 -12 -5z"/>
<path d="M1723 3653 c9 -2 25 -2 35 0 9 3 1 5 -18 5 -19 0 -27 -2 -17 -5z"/>
<path d="M2238 3653 c12 -2 30 -2 40 0 9 3 -1 5 -23 4 -22 0 -30 -2 -17 -4z"/>
<path d="M2368 3653 c7 -3 16 -2 19 1 4 3 -2 6 -13 5 -11 0 -14 -3 -6 -6z"/>
<path d="M1568 3643 c7 -3 16 -2 19 1 4 3 -2 6 -13 5 -11 0 -14 -3 -6 -6z"/>
<path d="M1663 3643 c9 -2 23 -2 30 0 6 3 -1 5 -18 5 -16 0 -22 -2 -12 -5z"/>
<path d="M1820 3643 c-33 -12 -60 -47 -60 -78 0 -39 27 -65 97 -95 78 -33 83
-90 8 -90 -26 0 -40 8 -64 37 -29 35 -31 36 -30 13 2 -48 14 -86 22 -72 6 8
21 10 47 6 45 -7 96 10 110 37 30 55 -1 111 -76 138 -70 24 -93 60 -55 81 31
16 51 12 82 -19 l29 -29 0 40 c0 33 -2 38 -14 29 -10 -8 -21 -8 -40 -1 -30 11
-34 11 -56 3z"/>
<path d="M2174 3631 c12 -14 12 -30 -5 -126 -11 -66 -24 -114 -33 -121 -11 -8
12 -15 96 -28 60 -10 111 -16 112 -14 1 2 7 20 14 42 l11 39 -28 -27 c-24 -23
-36 -27 -72 -24 l-44 3 2 44 c3 67 9 78 33 56 11 -10 20 -28 21 -39 0 -21 0
-21 8 -1 5 11 12 45 15 75 l7 55 -20 -32 c-11 -18 -28 -33 -37 -33 -13 0 -15
8 -9 53 4 28 9 54 11 56 2 3 21 0 42 -5 28 -7 41 -17 53 -43 l16 -34 6 38 c4
22 5 40 3 42 -2 2 -51 12 -110 22 -96 16 -105 16 -92 2z"/>
<path d="M2325 3640 c17 -4 39 -8 50 -8 16 0 15 2 -5 8 -14 4 -36 8 -50 8 -22
0 -22 -1 5 -8z"/>
<path d="M2408 3643 c7 -3 16 -2 19 1 4 3 -2 6 -13 5 -11 0 -14 -3 -6 -6z"/>
<path d="M1528 3633 c7 -3 16 -2 19 1 4 3 -2 6 -13 5 -11 0 -14 -3 -6 -6z"/>
<path d="M1618 3633 c7 -3 16 -2 19 1 4 3 -2 6 -13 5 -11 0 -14 -3 -6 -6z"/>
<path d="M2448 3633 c7 -3 16 -2 19 1 4 3 -2 6 -13 5 -11 0 -14 -3 -6 -6z"/>
<path d="M1578 3623 c7 -3 16 -2 19 1 4 3 -2 6 -13 5 -11 0 -14 -3 -6 -6z"/>
<path d="M2408 3623 c7 -3 16 -2 19 1 4 3 -2 6 -13 5 -11 0 -14 -3 -6 -6z"/>
<path d="M2500 3620 c8 -5 22 -9 30 -9 10 0 8 3 -5 9 -27 12 -43 12 -25 0z"/>
<path d="M1498 3603 c7 -3 16 -2 19 1 4 3 -2 6 -13 5 -11 0 -14 -3 -6 -6z"/>
<path d="M2560 3600 c8 -5 22 -9 30 -9 10 0 8 3 -5 9 -27 12 -43 12 -25 0z"/>
<path d="M1360 3580 c-8 -5 -10 -10 -5 -10 6 0 17 5 25 10 8 5 11 10 5 10 -5
0 -17 -5 -25 -10z"/>
<path d="M1420 3580 c-18 -12 -2 -12 25 0 13 6 15 9 5 9 -8 0 -22 -4 -30 -9z"/>
<path d="M2640 3570 c8 -5 20 -10 25 -10 6 0 3 5 -5 10 -8 5 -19 10 -25 10 -5
0 -3 -5 5 -10z"/>
<path d="M1310 3560 c-8 -5 -10 -10 -5 -10 6 0 17 5 25 10 8 5 11 10 5 10 -5
0 -17 -5 -25 -10z"/>
<path d="M2610 3560 c8 -5 20 -10 25 -10 6 0 3 5 -5 10 -8 5 -19 10 -25 10 -5
0 -3 -5 5 -10z"/>
<path d="M1340 3550 c-8 -5 -10 -10 -5 -10 6 0 17 5 25 10 8 5 11 10 5 10 -5
0 -17 -5 -25 -10z"/>
<path d="M2660 3540 c8 -5 20 -10 25 -10 6 0 3 5 -5 10 -8 5 -19 10 -25 10 -5
0 -3 -5 5 -10z"/>
<path d="M1238 3504 c-38 -19 -68 -37 -68 -39 0 -5 139 62 149 71 14 13 -23
-2 -81 -32z"/>
<path d="M2620 3520 c16 -30 -81 -220 -113 -220 -19 -1 -17 -4 13 -20 44 -24
53 -25 39 -2 -9 15 -3 33 30 100 23 45 43 82 44 82 2 0 17 -61 33 -135 15 -74
32 -135 36 -135 4 0 32 49 63 109 42 85 59 110 77 113 20 3 18 6 -16 21 -47
21 -52 21 -36 2 11 -13 8 -26 -15 -76 -16 -32 -32 -56 -35 -52 -4 5 -15 49
-25 99 l-18 92 -44 21 c-43 21 -43 21 -33 1z"/>
<path d="M1208 3514 c-39 -21 -35 -28 5 -8 37 19 44 24 31 24 -5 -1 -21 -8
-36 -16z"/>
<path d="M1398 3396 c-3 -90 -9 -140 -17 -150 -16 -19 -6 -20 39 -4 31 10 32
12 12 19 -15 6 -22 17 -22 34 0 21 8 29 43 44 l42 19 24 -23 c21 -20 22 -26
11 -39 -11 -14 -8 -14 26 0 22 9 50 21 64 26 21 9 22 11 8 17 -9 3 -61 48
-116 99 -55 50 -102 92 -105 92 -2 0 -6 -60 -9 -134z m56 5 l28 -29 -30 -16
c-19 -10 -33 -12 -37 -6 -5 8 3 80 9 80 1 0 15 -13 30 -29z"/>
<path d="M2720 3516 c0 -2 7 -7 16 -10 8 -3 12 -2 9 4 -6 10 -25 14 -25 6z"/>
<path d="M2760 3496 c0 -2 7 -7 16 -10 8 -3 12 -2 9 4 -6 10 -25 14 -25 6z"/>
<path d="M2810 3496 c0 -3 14 -12 30 -21 17 -9 30 -13 30 -11 0 3 -13 12 -30
21 -16 9 -30 13 -30 11z"/>
<path d="M1124 3464 c-18 -14 -18 -15 4 -4 12 6 22 13 22 15 0 8 -5 6 -26 -11z"/>
<path d="M2840 3456 c0 -3 9 -10 20 -16 11 -6 20 -8 20 -6 0 3 -9 10 -20 16
-11 6 -20 8 -20 6z"/>
<path d="M1074 3434 c-18 -14 -18 -15 4 -4 12 6 22 13 22 15 0 8 -5 6 -26 -11z"/>
<path d="M999 3383 c-13 -16 -12 -17 4 -4 9 7 17 15 17 17 0 8 -8 3 -21 -13z"/>
<path d="M2940 3396 c0 -2 8 -10 18 -17 15 -13 16 -12 3 4 -13 16 -21 21 -21
13z"/>
<path d="M2990 3386 c0 -2 8 -10 18 -17 15 -13 16 -12 3 4 -13 16 -21 21 -21
13z"/>
<path d="M959 3353 c-13 -16 -12 -17 4 -4 9 7 17 15 17 17 0 8 -8 3 -21 -13z"/>
<path d="M979 3343 c-13 -16 -12 -17 4 -4 9 7 17 15 17 17 0 8 -8 3 -21 -13z"/>
<path d="M1037 3327 l-38 -33 31 -83 c17 -46 29 -86 26 -88 -2 -3 -41 12 -87
32 l-83 36 -38 -38 c-35 -36 -37 -39 -16 -38 16 0 46 -24 97 -77 65 -69 72
-81 66 -105 l-6 -28 35 34 c20 19 36 36 36 37 0 0 -10 -1 -23 -3 -18 -4 -36
11 -90 71 -38 42 -66 76 -64 76 3 0 55 -22 116 -50 61 -27 111 -45 111 -39 0
5 -18 57 -39 116 -22 59 -39 109 -37 111 2 1 35 -32 74 -74 63 -68 70 -79 60
-98 -9 -18 17 3 97 76 6 6 0 7 -16 3 -23 -6 -35 3 -100 75 -41 45 -74 90 -73
101 0 10 0 19 0 19 -1 -1 -18 -15 -39 -33z"/>
<path d="M3030 3356 c0 -2 8 -10 18 -17 15 -13 16 -12 3 4 -13 16 -21 21 -21
13z"/>
<path d="M3025 3330 c10 -11 20 -20 23 -20 3 0 -3 9 -13 20 -10 11 -20 20 -23
20 -3 0 3 -9 13 -20z"/>
<path d="M914 3318 l-19 -23 23 19 c12 11 22 21 22 23 0 8 -8 2 -26 -19z"/>
<path d="M934 3308 l-19 -23 23 19 c21 18 27 26 19 26 -2 0 -12 -10 -23 -22z"/>
<path d="M3090 3305 c13 -14 26 -25 28 -25 3 0 -5 11 -18 25 -13 14 -26 25
-28 25 -3 0 5 -11 18 -25z"/>
<path d="M3080 3285 c13 -14 26 -25 28 -25 3 0 -5 11 -18 25 -13 14 -26 25
-28 25 -3 0 5 -11 18 -25z"/>
<path d="M805 3218 l-80 -83 83 80 c76 74 87 85 79 85 -1 0 -38 -37 -82 -82z"/>
<path d="M815 3198 l-80 -83 83 80 c76 74 87 85 79 85 -1 0 -38 -37 -82 -82z"/>
<path d="M3190 3215 c30 -30 57 -55 59 -55 3 0 -19 25 -49 55 -30 30 -57 55
-59 55 -3 0 19 -25 49 -55z"/>
<path d="M3170 3208 c41 -45 50 -53 50 -45 0 2 -21 23 -47 47 l-48 45 45 -47z"/>
<path d="M2982 3213 c-70 -34 -101 -126 -64 -193 73 -134 272 -90 272 60 0
108 -112 180 -208 133z m160 -54 c16 -21 17 -30 8 -55 -22 -58 -103 -124 -151
-124 -28 0 -59 27 -59 52 0 43 54 111 115 143 39 20 64 16 87 -16z"/>
<path d="M3270 3125 c13 -14 26 -25 28 -25 3 0 -5 11 -18 25 -13 14 -26 25
-28 25 -3 0 5 -11 18 -25z"/>
<path d="M3255 3110 c10 -11 20 -20 23 -20 3 0 -3 9 -13 20 -10 11 -20 20 -23
20 -3 0 3 -9 13 -20z"/>
<path d="M694 3098 l-19 -23 23 19 c21 18 27 26 19 26 -2 0 -12 -10 -23 -22z"/>
<path d="M709 3083 c-13 -16 -12 -17 4 -4 9 7 17 15 17 17 0 8 -8 3 -21 -13z"/>
<path d="M3315 3070 c10 -11 20 -20 23 -20 3 0 -3 9 -13 20 -10 11 -20 20 -23
20 -3 0 3 -9 13 -20z"/>
<path d="M659 3053 c-13 -16 -12 -17 4 -4 9 7 17 15 17 17 0 8 -8 3 -21 -13z"/>
<path d="M3290 3066 c0 -2 8 -10 18 -17 15 -13 16 -12 3 4 -13 16 -21 21 -21
13z"/>
<path d="M679 3043 c-29 -35 -41 -53 -36 -53 2 0 17 16 31 35 28 36 31 49 5
18z"/>
<path d="M590 2950 c-6 -11 -8 -20 -6 -20 3 0 10 9 16 20 6 11 8 20 6 20 -3 0
-10 -9 -16 -20z"/>
<path d="M3380 2940 c6 -11 13 -20 16 -20 2 0 0 9 -6 20 -6 11 -13 20 -16 20
-2 0 0 -9 6 -20z"/>
<path d="M3410 2930 c6 -11 13 -20 16 -20 2 0 0 9 -6 20 -6 11 -13 20 -16 20
-2 0 0 -9 6 -20z"/>
<path d="M554 2889 c-10 -21 -11 -29 -3 -23 9 5 10 2 5 -12 -16 -40 -19 -49
-14 -44 12 12 39 72 29 66 -14 -9 -14 0 -1 25 6 10 8 19 6 19 -3 0 -13 -14
-22 -31z"/>
<path d="M3437 2835 c15 -30 29 -53 31 -51 4 5 -46 106 -53 106 -3 0 7 -25 22
-55z"/>
<path d="M512 2805 c-17 -37 -14 -45 4 -12 9 16 14 31 11 33 -2 2 -9 -7 -15
-21z"/>
<path d="M3481 2795 c0 -5 9 -28 20 -50 10 -22 16 -29 13 -15 -7 28 -33 80
-33 65z"/>
<path d="M486 2745 c-9 -24 -7 -32 4 -15 9 13 10 13 10 0 1 -11 3 -11 11 3 6
10 8 21 5 24 -3 4 -6 0 -6 -8 0 -11 -2 -12 -9 -1 -7 11 -10 10 -15 -3z"/>
<path d="M456 2665 c-3 -9 -6 -22 -5 -28 0 -7 5 -1 10 12 5 13 8 26 5 28 -2 2
-6 -3 -10 -12z"/>
<path d="M3531 2665 c1 -19 18 -51 18 -35 0 8 -4 22 -9 30 -5 8 -9 11 -9 5z"/>
<path d="M2644 2645 c-10 -8 -35 -15 -55 -15 -39 0 -56 -19 -36 -39 6 -6 27
-11 46 -11 59 0 24 -13 -39 -15 -65 -2 -76 -6 -67 -30 5 -10 20 -15 51 -15 39
0 48 -4 74 -37 20 -26 32 -55 37 -90 l7 -53 -34 6 c-18 4 -46 12 -63 19 -53
23 -63 24 -99 14 -38 -10 -40 -16 -27 -74 l6 -30 90 -6 90 -5 -87 -2 c-81 -2
-88 -4 -88 -22 0 -18 7 -20 73 -20 124 0 161 42 150 168 -5 58 -5 59 28 75 19
10 45 25 59 35 14 9 6 -1 -17 -24 l-43 -41 0 -80 c0 -120 -6 -117 251 -121
142 -2 209 0 209 7 0 7 -66 11 -197 12 -109 0 -207 4 -218 9 -13 6 16 9 83 9
66 1 101 5 97 11 -3 6 -19 10 -36 10 -27 0 -29 2 -29 40 0 37 2 39 34 45 34 7
133 -15 129 -28 -2 -4 -3 -18 -3 -31 0 -20 -6 -25 -32 -29 -18 -2 14 -5 71 -5
90 -2 102 0 97 14 -3 9 -6 22 -6 29 0 9 -31 24 -81 40 -97 30 -187 33 -282 6
l-67 -18 -6 23 c-3 12 0 35 8 50 17 36 125 113 159 114 32 0 64 23 55 38 -4 7
-17 12 -29 12 -17 0 -19 -2 -8 -9 12 -8 10 -11 -10 -15 -31 -8 -73 -10 -129
-8 -59 3 -34 21 30 23 25 0 56 5 70 9 20 6 14 8 -27 9 -42 1 -51 4 -47 16 4 9
-3 16 -21 21 -14 3 -29 4 -32 0 -4 -3 1 -6 10 -6 10 0 17 -4 17 -10 0 -5 -9
-10 -20 -10 -11 0 -28 -5 -38 -11 -11 -7 -38 -7 -82 -1 -45 7 -54 10 -29 11
19 0 44 8 55 16 10 8 32 15 47 15 16 0 26 4 22 10 -9 15 -48 12 -71 -5z m21
-105 c4 -6 -22 -9 -73 -8 -44 2 -78 6 -75 10 7 12 141 10 148 -2z m109 1 c17
-6 15 -10 -18 -31 -31 -19 -40 -20 -47 -9 -13 20 -11 27 9 38 20 12 30 12 56
2z m-89 -42 c12 -36 -9 -41 -40 -9 l-29 30 31 0 c23 0 33 -6 38 -21z m-106
-161 c30 -11 26 -14 -24 -21 -37 -6 -40 -5 -40 18 0 26 3 26 64 3z m-6 -45
c-7 -2 -19 -2 -25 0 -7 3 -2 5 12 5 14 0 19 -2 13 -5z"/>
<path d="M1233 2640 c-13 -5 -23 -14 -23 -20 0 -13 6 -13 32 1 11 6 36 11 55
11 19 0 40 -5 46 -11 6 -6 27 -11 46 -11 46 0 36 -8 -25 -19 -38 -7 -55 -6
-78 6 -23 12 -34 13 -48 4 -12 -7 -41 -9 -81 -5 -46 4 -67 2 -81 -9 -27 -20
-14 -43 30 -52 43 -8 139 -68 159 -99 19 -30 29 -86 16 -86 -6 0 -53 9 -104
21 -107 24 -147 21 -259 -19 -77 -27 -78 -28 -78 -61 l0 -34 217 6 c170 5 214
4 204 -6 -8 -8 -48 -12 -114 -12 -268 -1 -307 -4 -307 -22 0 -15 18 -15 196
-9 201 7 244 16 258 51 10 28 7 160 -5 172 -8 8 -8 17 -1 29 9 16 10 16 16 -4
4 -12 12 -22 17 -22 5 0 7 -28 4 -67 -7 -81 5 -110 55 -136 41 -21 161 -20
168 1 3 9 -18 12 -82 12 -75 0 -110 10 -93 26 3 3 42 6 87 7 82 2 82 2 48 17
-23 10 -32 20 -30 33 3 16 10 18 45 12 39 -5 41 -5 23 10 -25 19 -76 19 -123
0 -19 -8 -46 -15 -59 -15 -22 0 -24 4 -24 43 0 30 9 55 31 87 27 41 35 45 77
50 56 6 64 30 15 46 -25 7 -30 13 -21 22 18 18 -6 39 -55 45 -101 15 -133 16
-154 7z m1 -71 l41 -1 -42 -10 c-50 -12 -164 -1 -142 13 8 6 34 7 58 4 24 -3
62 -6 85 -6z m230 -27 c3 -5 -34 -9 -82 -9 -63 -1 -77 1 -52 7 49 10 128 12
134 2z m-177 -17 c1 -5 -1 -16 -6 -24 -7 -11 -14 -10 -40 5 -21 13 -27 20 -18
26 16 11 60 6 64 -7z m63 -15 c12 -7 12 -12 -4 -29 -26 -29 -36 -26 -36 9 0
31 13 37 40 20z m-217 -157 c4 -2 7 -20 7 -39 l0 -34 -79 0 -79 0 -4 30 c-5
30 8 40 67 53 20 5 73 -1 88 -10z"/>
<path d="M441 2604 c0 -11 3 -14 6 -6 3 7 2 16 -1 19 -3 4 -6 -2 -5 -13z"/>
<path d="M1930 2610 c-54 -8 -118 -28 -91 -29 11 -1 11 -4 1 -16 -14 -17 -40
-20 -40 -5 0 6 5 10 12 10 6 0 9 3 6 6 -11 10 -90 -37 -139 -83 -50 -47 -110
-150 -108 -187 1 -14 4 -11 10 12 11 37 9 36 60 20 24 -7 39 -17 39 -27 0 -10
3 -12 8 -5 4 6 14 13 22 16 10 4 4 8 -15 13 -59 14 -95 27 -95 34 0 4 14 29
31 55 25 37 36 46 53 41 11 -2 15 -2 9 1 -7 3 -13 10 -13 14 0 16 91 72 106
66 13 -5 10 -14 -16 -46 -17 -22 -39 -40 -48 -40 -15 0 -15 -2 -2 -10 8 -5 26
-9 40 -9 17 1 19 3 8 6 -25 6 -23 14 15 55 26 29 38 35 60 31 15 -3 27 -8 27
-12 0 -3 48 -4 107 -1 67 4 113 2 122 -5 11 -7 13 -7 8 1 -4 7 2 14 16 18 33
9 33 9 68 -35 26 -33 29 -43 18 -50 -24 -15 14 -11 54 6 20 8 41 15 46 15 9 0
71 -87 71 -101 0 -10 -90 -40 -101 -34 -4 3 -10 1 -14 -5 -3 -5 -1 -10 4 -10
6 0 12 -15 12 -32 l2 -33 6 34 c5 28 13 37 41 47 52 19 59 17 69 -18 6 -21 9
-26 10 -13 3 64 -96 195 -184 246 -44 25 -91 42 -57 20 11 -7 11 -9 -1 -14 -8
-3 -27 4 -43 15 l-29 20 30 -6 c21 -5 25 -4 14 3 -14 9 -130 28 -119 20 3 -2
16 -13 30 -24 19 -16 22 -16 11 -2 -18 23 -6 22 36 -4 30 -19 33 -23 19 -31
-12 -7 -22 -5 -33 4 -9 7 -14 8 -10 2 9 -16 -25 -24 -107 -24 -61 0 -67 2 -61
18 5 14 4 15 -6 5 -15 -15 -59 -17 -59 -4 0 11 62 51 80 51 10 0 9 -4 -1 -17
-13 -17 -13 -17 7 0 11 9 35 17 53 17 19 0 30 4 26 10 -3 6 -9 9 -13 9 -4 -1
-32 -5 -62 -9z m327 -91 c46 -32 47 -43 2 -54 -22 -5 -31 0 -58 33 -17 22 -31
43 -31 46 0 16 46 3 87 -25z"/>
<path d="M3551 2594 c0 -11 3 -14 6 -6 3 7 2 16 -1 19 -3 4 -6 -2 -5 -13z"/>
<path d="M431 2564 c0 -11 3 -14 6 -6 3 7 2 16 -1 19 -3 4 -6 -2 -5 -13z"/>
<path d="M451 2564 c0 -11 3 -14 6 -6 3 7 2 16 -1 19 -3 4 -6 -2 -5 -13z"/>
<path d="M3541 2554 c0 -11 3 -14 6 -6 3 7 2 16 -1 19 -3 4 -6 -2 -5 -13z"/>
<path d="M3561 2554 c0 -11 3 -14 6 -6 3 7 2 16 -1 19 -3 4 -6 -2 -5 -13z"/>
<path d="M422 2520 c0 -14 2 -19 5 -12 2 6 2 18 0 25 -3 6 -5 1 -5 -13z"/>
<path d="M441 2524 c0 -11 3 -14 6 -6 3 7 2 16 -1 19 -3 4 -6 -2 -5 -13z"/>
<path d="M3572 2510 c0 -14 2 -19 5 -12 2 6 2 18 0 25 -3 6 -5 1 -5 -13z"/>
<path d="M3551 2504 c0 -11 3 -14 6 -6 3 7 2 16 -1 19 -3 4 -6 -2 -5 -13z"/>
<path d="M1856 2485 c-9 -26 -7 -32 5 -12 6 10 9 21 6 23 -2 3 -7 -2 -11 -11z"/>
<path d="M412 2465 c0 -16 2 -22 5 -12 2 9 2 23 0 30 -3 6 -5 -1 -5 -18z"/>
<path d="M431 2474 c0 -11 3 -14 6 -6 3 7 2 16 -1 19 -3 4 -6 -2 -5 -13z"/>
<path d="M2127 2455 c7 -38 4 -36 39 -26 29 9 29 9 3 10 -16 1 -30 9 -37 24
-10 20 -11 19 -5 -8z"/>
<path d="M3562 2455 c0 -16 2 -22 5 -12 2 9 2 23 0 30 -3 6 -5 -1 -5 -18z"/>
<path d="M3582 2450 c0 -19 2 -27 5 -17 2 9 2 25 0 35 -3 9 -5 1 -5 -18z"/>
<path d="M1815 2440 l-30 -6 30 -6 c32 -7 39 -5 34 9 -2 5 -17 6 -34 3z"/>
<path d="M1715 2419 c-4 -6 -5 -12 -2 -15 2 -3 7 2 10 11 7 17 1 20 -8 4z"/>
<path d="M1868 2423 c7 -3 16 -2 19 1 4 3 -2 6 -13 5 -11 0 -14 -3 -6 -6z"/>
<path d="M1930 2419 c0 -5 9 -9 20 -9 11 0 20 2 20 4 0 2 -9 6 -20 9 -11 3
-20 1 -20 -4z"/>
<path d="M2098 2423 c7 -3 16 -2 19 1 4 3 -2 6 -13 5 -11 0 -14 -3 -6 -6z"/>
<path d="M403 2380 c0 -25 2 -35 4 -22 2 12 2 32 0 45 -2 12 -4 2 -4 -23z"/>
<path d="M422 2390 c0 -19 2 -27 5 -17 2 9 2 25 0 35 -3 9 -5 1 -5 -18z"/>
<path d="M2018 2413 c6 -2 18 -2 25 0 6 3 1 5 -13 5 -14 0 -19 -2 -12 -5z"/>
<path d="M3573 2335 c0 -33 2 -45 4 -27 2 18 2 45 0 60 -2 15 -4 0 -4 -33z"/>
<path d="M3594 2270 c0 -69 1 -97 3 -62 2 34 2 90 0 125 -2 34 -3 6 -3 -63z"/>
<path d="M1743 2313 c9 -2 25 -2 35 0 9 3 1 5 -18 5 -19 0 -27 -2 -17 -5z"/>
<path d="M1804 2309 c-3 -5 9 -9 25 -9 17 0 31 2 31 4 0 8 -51 13 -56 5z"/>
<path d="M2148 2309 c-21 -13 19 -15 62 -3 l45 13 -48 -2 c-27 -1 -53 -5 -59
-8z"/>
<path d="M1563 2235 c0 -27 2 -40 4 -27 2 12 5 22 6 22 1 0 25 -7 52 -16 28
-8 64 -17 80 -19 17 -3 41 -7 55 -10 59 -13 103 -15 245 -15 83 0 177 4 210
10 33 5 61 10 63 10 1 0 2 -8 3 -17 0 -15 2 -14 9 3 6 15 21 23 48 28 22 3 47
9 55 12 11 4 17 -2 20 -18 2 -13 4 2 4 32 0 30 -2 45 -4 33 -5 -25 -15 -29
-100 -44 -146 -25 -187 -29 -318 -29 -124 0 -172 5 -330 35 -59 11 -94 26 -98
43 -3 9 -5 -5 -4 -33z"/>
<path d="M3573 2200 c0 -30 2 -43 4 -27 2 15 2 39 0 55 -2 15 -4 2 -4 -28z"/>
<path d="M403 2165 c0 -27 2 -38 4 -22 2 15 2 37 0 50 -2 12 -4 0 -4 -28z"/>
<path d="M422 2140 c0 -19 2 -27 5 -17 2 9 2 25 0 35 -3 9 -5 1 -5 -18z"/>
<path d="M1571 2158 c-2 -30 11 -48 33 -47 20 0 20 1 1 8 -11 4 -23 19 -26 32
-4 14 -7 17 -8 7z"/>
<path d="M2401 2154 c0 -11 3 -14 6 -6 3 7 2 16 -1 19 -3 4 -6 -2 -5 -13z"/>
<path d="M2370 2113 c-14 -8 -17 -12 -7 -9 56 17 -25 -96 -85 -118 -29 -11
-33 -14 -13 -10 l30 5 -20 -20 c-11 -11 -45 -34 -75 -50 -67 -37 -59 -41 12
-5 65 33 137 105 167 167 13 26 22 50 20 52 -2 2 -15 -3 -29 -12z"/>
<path d="M1665 2095 c22 -8 51 -13 65 -13 15 0 5 5 -25 14 -63 17 -94 16 -40
-1z"/>
<path d="M3562 2085 c0 -16 2 -22 5 -12 2 9 2 23 0 30 -3 6 -5 -1 -5 -18z"/>
<path d="M3582 2085 c0 -16 2 -22 5 -12 2 9 2 23 0 30 -3 6 -5 -1 -5 -18z"/>
<path d="M1590 2095 c0 -5 14 -31 32 -58 36 -56 103 -113 166 -141 41 -19 55
-36 30 -36 -7 -1 1 -8 17 -17 40 -21 40 -20 26 -37 -20 -24 6 -29 29 -6 12 12
27 19 33 16 66 -27 86 -29 120 -8 l35 20 26 -25 c29 -27 48 -25 26 3 -12 13
-11 17 1 25 8 5 20 9 27 9 6 0 12 5 12 10 0 6 -5 10 -10 10 -6 0 -17 6 -24 13
-11 10 -7 18 27 47 22 19 47 38 56 42 10 4 11 7 3 7 -10 1 -10 6 -2 24 9 17 6
16 -10 -5 -13 -17 -32 -28 -48 -29 l-27 -1 24 -7 c24 -6 24 -7 -16 -39 -59
-47 -82 -42 -43 8 25 32 25 39 -1 33 -13 -4 -16 -8 -9 -13 7 -5 5 -13 -7 -29
-16 -18 -23 -20 -51 -12 -18 6 -39 8 -45 6 -55 -16 -67 -15 -83 11 -15 22 -15
27 -3 35 11 7 9 9 -8 9 -12 0 -24 6 -26 13 -3 6 -6 7 -6 1 -1 -6 -15 -9 -33
-8 l-33 3 35 -8 c34 -9 83 -57 74 -73 -10 -16 -38 -7 -83 28 l-46 36 39 -36
c48 -44 43 -45 -32 -7 -61 31 -116 80 -91 82 8 1 3 4 -11 8 -14 4 -39 27 -57
55 -18 27 -33 45 -33 41z m438 -251 c-7 -6 -57 9 -53 17 3 4 17 3 30 -3 14 -6
24 -12 23 -14z"/>
<path d="M2253 2085 c-8 -9 -9 -16 -3 -20 6 -3 13 1 16 10 9 21 2 26 -13 10z"/>
<path d="M2295 2090 c-13 -5 -14 -9 -5 -9 8 0 24 4 35 9 13 5 14 9 5 9 -8 0
-24 -4 -35 -9z"/>
<path d="M412 2065 c0 -16 2 -22 5 -12 2 9 2 23 0 30 -3 6 -5 -1 -5 -18z"/>
<path d="M2146 2064 c-4 -14 -5 -29 -2 -31 3 -3 8 7 12 21 3 15 4 29 1 32 -2
3 -8 -7 -11 -22z"/>
<path d="M432 2060 c0 -14 2 -19 5 -12 2 6 2 18 0 25 -3 6 -5 1 -5 -13z"/>
<path d="M1773 2073 c9 -2 23 -2 30 0 6 3 -1 5 -18 5 -16 0 -22 -2 -12 -5z"/>
<path d="M1820 2070 c0 -5 14 -10 32 -10 36 0 35 4 -4 14 -17 4 -28 2 -28 -4z"/>
<path d="M2183 2063 c9 -2 25 -2 35 0 9 3 1 5 -18 5 -19 0 -27 -2 -17 -5z"/>
<path d="M1948 2053 c12 -2 30 -2 40 0 9 3 -1 5 -23 4 -22 0 -30 -2 -17 -4z"/>
<path d="M2028 2053 c7 -3 16 -2 19 1 4 3 -2 6 -13 5 -11 0 -14 -3 -6 -6z"/>
<path d="M2093 2053 c9 -2 23 -2 30 0 6 3 -1 5 -18 5 -16 0 -22 -2 -12 -5z"/>
<path d="M1720 2044 c0 -6 7 -19 16 -30 14 -18 14 -18 3 6 -14 31 -19 36 -19
24z"/>
<path d="M3572 2030 c0 -14 2 -19 5 -12 2 6 2 18 0 25 -3 6 -5 1 -5 -13z"/>
<path d="M3551 2024 c0 -11 3 -14 6 -6 3 7 2 16 -1 19 -3 4 -6 -2 -5 -13z"/>
<path d="M422 2010 c0 -14 2 -19 5 -12 2 6 2 18 0 25 -3 6 -5 1 -5 -13z"/>
<path d="M442 2010 c0 -14 2 -19 5 -12 2 6 2 18 0 25 -3 6 -5 1 -5 -13z"/>
<path d="M3541 1984 c0 -11 3 -14 6 -6 3 7 2 16 -1 19 -3 4 -6 -2 -5 -13z"/>
<path d="M3561 1984 c0 -11 3 -14 6 -6 3 7 2 16 -1 19 -3 4 -6 -2 -5 -13z"/>
<path d="M1740 1976 c19 -7 39 -10 44 -7 13 6 -23 20 -54 20 -21 0 -20 -2 10
-13z"/>
<path d="M431 1964 c0 -11 3 -14 6 -6 3 7 2 16 -1 19 -3 4 -6 -2 -5 -13z"/>
<path d="M451 1964 c0 -11 3 -14 6 -6 3 7 2 16 -1 19 -3 4 -6 -2 -5 -13z"/>
<path d="M3551 1944 c0 -11 3 -14 6 -6 3 7 2 16 -1 19 -3 4 -6 -2 -5 -13z"/>
<path d="M1943 1943 c9 -2 23 -2 30 0 6 3 -1 5 -18 5 -16 0 -22 -2 -12 -5z"/>
<path d="M2008 1943 c12 -2 32 -2 45 0 12 2 2 4 -23 4 -25 0 -35 -2 -22 -4z"/>
<path d="M3521 1904 c0 -11 3 -14 6 -6 3 7 2 16 -1 19 -3 4 -6 -2 -5 -13z"/>
<path d="M3541 1904 c0 -11 3 -14 6 -6 3 7 2 16 -1 19 -3 4 -6 -2 -5 -13z"/>
<path d="M451 1894 c0 -11 3 -14 6 -6 3 7 2 16 -1 19 -3 4 -6 -2 -5 -13z"/>
<path d="M471 1894 c0 -11 3 -14 6 -6 3 7 2 16 -1 19 -3 4 -6 -2 -5 -13z"/>
<path d="M3506 1865 c-9 -26 -7 -32 5 -12 6 10 9 21 6 23 -2 3 -7 -2 -11 -11z"/>
<path d="M3511 1819 c-6 -18 -9 -34 -7 -36 2 -2 9 10 15 28 6 18 9 34 7 36 -2
2 -9 -10 -15 -28z"/>
<path d="M470 1835 c0 -5 5 -17 10 -25 5 -8 10 -10 10 -5 0 6 -5 17 -10 25 -5
8 -10 11 -10 5z"/>
<path d="M2300 1831 c-81 -6 -148 -37 -149 -69 0 -9 -2 -33 -4 -53 -1 -20 3
-49 10 -65 7 -16 12 -22 13 -13 0 22 29 29 117 29 69 0 148 23 138 40 -3 5 22
6 44 1 2 -1 -2 -8 -9 -16 -11 -13 -10 -14 4 -9 18 7 22 29 6 39 -6 4 -5 13 2
25 10 15 9 22 -5 38 -9 10 -14 22 -11 25 4 4 1 13 -6 22 -13 15 -22 16 -150 6z
m150 -22 c0 -8 -72 -49 -85 -49 -15 0 -2 28 18 38 17 8 18 11 5 11 -9 1 -20
-3 -23 -9 -3 -5 -16 -11 -28 -11 -18 -1 -19 -2 -4 -6 13 -3 17 -11 14 -24 -6
-23 -6 -23 40 -4 45 19 73 19 73 0 0 -14 -34 -36 -77 -49 -32 -10 -29 10 5 29
15 9 18 13 7 10 -11 -4 -27 -9 -36 -12 -10 -3 -16 -14 -15 -29 1 -25 3 -26 51
-9 13 4 11 1 -5 -8 -33 -20 -203 -18 -222 1 -21 21 8 31 87 34 l70 2 -60 3
c-90 5 -104 9 -98 33 5 17 15 20 72 22 l66 2 -55 4 c-53 3 -54 4 -30 18 27 15
230 18 230 3z"/>
<path d="M1660 1824 c35 -7 98 -9 94 -2 -3 5 -29 7 -57 7 -29 -1 -45 -3 -37
-5z"/>
<path d="M1550 1811 c0 -5 9 -7 19 -4 10 3 32 -3 47 -12 l29 -17 -25 21 c-25
21 -70 29 -70 12z"/>
<path d="M3476 1785 c-9 -26 -7 -32 5 -12 6 10 9 21 6 23 -2 3 -7 -2 -11 -11z"/>
<path d="M511 1785 c0 -5 6 -21 14 -35 8 -14 14 -20 14 -15 0 6 -6 21 -14 35
-8 14 -14 21 -14 15z"/>
<path d="M1542 1773 c-7 -7 -12 -24 -11 -36 1 -12 -2 -30 -6 -40 -10 -24 -3
-30 72 -61 52 -22 78 -26 157 -26 92 0 94 0 98 25 3 14 1 25 -6 25 -8 0 -8 2
0 8 10 6 11 27 4 97 -1 11 -4 14 -7 8 -2 -7 -4 -15 -3 -19 1 -4 -4 -10 -12
-15 -10 -6 -10 -11 0 -21 17 -17 15 -38 -3 -38 -20 0 -19 -10 3 -26 32 -24 1
-35 -89 -32 -73 3 -84 5 -83 21 2 21 -13 23 -18 2 -2 -12 -12 -10 -56 10 -55
26 -61 45 -14 45 l27 1 -27 15 c-16 8 -28 19 -28 24 0 13 4 13 47 -5 50 -21
55 -18 10 6 -22 11 -37 23 -34 26 3 2 15 -1 27 -7 12 -6 24 -10 26 -8 2 3 -11
11 -29 20 -28 13 -34 13 -45 1z"/>
<path d="M2011 1698 c0 -43 2 -78 7 -78 4 0 6 24 4 52 -5 95 -9 104 -11 26z"/>
<path d="M1640 1746 c0 -14 12 -16 83 -14 l82 2 -70 3 c-38 2 -75 9 -82 15
-10 8 -13 6 -13 -6z"/>
<path d="M1941 1698 c-1 -66 -6 -77 -27 -60 -5 4 -1 -1 9 -10 29 -27 32 -23
29 34 -5 92 -9 105 -11 36z"/>
<path d="M3472 1725 c-17 -37 -14 -45 4 -12 9 16 14 31 11 33 -2 2 -9 -7 -15
-21z"/>
<path d="M520 1716 c0 -11 30 -66 36 -66 2 0 -3 15 -12 33 -19 36 -24 44 -24
33z"/>
<path d="M1647 1704 c5 -14 1 -16 -23 -11 l-29 6 30 -14 c17 -8 50 -14 75 -13
l45 1 -44 4 c-37 4 -42 7 -38 24 3 12 0 19 -9 19 -8 0 -11 -6 -7 -16z"/>
<path d="M3435 1650 c-9 -16 -13 -30 -11 -30 3 0 12 14 21 30 9 17 13 30 11
30 -3 0 -12 -13 -21 -30z"/>
<path d="M2400 1655 c-14 -8 -20 -14 -15 -14 6 0 21 6 35 14 14 8 21 14 15 14
-5 0 -21 -6 -35 -14z"/>
<path d="M580 1641 c13 -25 13 -34 -1 -25 -8 4 -8 0 0 -15 14 -25 23 -28 14
-4 -5 11 -3 14 6 9 8 -6 7 2 -3 23 -9 17 -19 31 -22 31 -2 0 0 -9 6 -19z"/>
<path d="M2050 1643 c0 -13 5 -23 10 -23 13 0 13 11 0 30 -8 12 -10 11 -10 -7z"/>
<path d="M2288 1623 c6 -2 18 -2 25 0 6 3 1 5 -13 5 -14 0 -19 -2 -12 -5z"/>
<path d="M2570 1615 c-22 -8 -81 -14 -160 -14 -76 -1 -147 -7 -180 -16 -64
-17 -141 -19 -190 -5 -26 8 -52 6 -102 -6 -63 -15 -72 -15 -139 1 -58 14 -94
17 -188 11 -102 -5 -124 -4 -176 14 -32 11 -72 20 -89 20 -42 0 -185 -35 -198
-48 -20 -20 19 -25 69 -9 77 24 116 28 174 16 30 -6 74 -15 99 -20 28 -6 74
-5 125 2 72 9 90 8 165 -12 64 -16 96 -20 134 -14 28 4 67 7 86 6 134 -5 179
-2 219 13 32 12 78 16 180 16 101 0 150 4 185 16 57 20 141 15 216 -12 45 -16
52 -17 66 -3 14 14 8 18 -58 37 -83 25 -184 28 -238 7z"/>
<path d="M2585 1544 c-70 -22 -91 -24 -170 -19 -75 5 -107 3 -180 -15 -81 -20
-97 -21 -156 -10 -36 7 -81 10 -100 6 -90 -18 -148 -18 -199 -1 -43 14 -71 16
-161 10 -96 -6 -118 -4 -183 15 -71 22 -76 22 -151 7 -85 -18 -94 -22 -78 -38
8 -8 31 -7 82 5 73 17 97 15 166 -11 32 -12 66 -14 170 -8 105 5 138 3 174 -9
49 -18 130 -21 178 -7 22 7 48 5 85 -4 56 -15 69 -14 163 17 52 17 75 19 171
13 94 -5 123 -3 192 15 68 17 88 18 124 9 59 -15 90 -16 95 -3 4 13 -54 38
-107 47 -23 4 -62 -3 -115 -19z"/>
<path d="M3365 1534 c-9 -15 -12 -23 -6 -20 11 7 35 46 28 46 -3 0 -12 -12
-22 -26z"/>
<path d="M3010 1525 c-8 -10 -9 -15 -2 -15 11 0 35 -70 27 -78 -6 -7 -73 18
-77 29 -2 6 -14 -1 -26 -14 l-23 -25 65 -22 c66 -21 94 -48 80 -73 -4 -6 9 4
29 22 40 38 44 43 24 35 -21 -8 -54 38 -65 91 -6 27 -8 53 -6 57 9 14 -13 8
-26 -7z"/>
<path d="M650 1526 c0 -2 8 -10 18 -17 15 -13 16 -12 3 4 -13 16 -21 21 -21
13z"/>
<path d="M963 1523 c3 -5 -14 -32 -38 -60 -51 -58 -55 -83 -20 -118 36 -37 61
-31 118 25 27 27 55 47 61 43 6 -4 2 4 -9 16 -20 23 -20 23 -23 3 -3 -21 -84
-102 -101 -102 -14 0 -41 29 -41 44 0 7 24 36 54 64 48 46 52 52 37 65 -24 20
-45 32 -38 20z"/>
<path d="M3319 1503 c-13 -16 -12 -17 4 -4 16 13 21 21 13 21 -2 0 -10 -8 -17
-17z"/>
<path d="M3329 1483 c-13 -16 -12 -17 4 -4 16 13 21 21 13 21 -2 0 -10 -8 -17
-17z"/>
<path d="M680 1486 c0 -2 8 -10 18 -17 15 -13 16 -12 3 4 -13 16 -21 21 -21
13z"/>
<path d="M675 1460 c10 -11 20 -20 23 -20 3 0 -3 9 -13 20 -10 11 -20 20 -23
20 -3 0 3 -9 13 -20z"/>
<path d="M2580 1459 c-50 -14 -84 -17 -148 -12 -65 5 -104 1 -186 -17 -100
-22 -106 -23 -162 -7 -53 15 -64 15 -108 2 -65 -20 -91 -19 -188 6 -70 18 -89
20 -136 10 -80 -16 -125 -14 -203 10 -69 21 -116 21 -149 -1 -24 -16 5 -29 51
-23 23 3 65 -2 101 -12 51 -14 83 -16 178 -10 94 5 129 3 181 -10 47 -13 81
-15 129 -10 77 9 85 9 171 0 55 -6 78 -4 133 15 59 19 78 21 170 15 82 -6 115
-4 160 9 31 9 74 16 96 14 43 -2 80 19 58 33 -20 13 -76 8 -148 -12z"/>
<path d="M3289 1463 c-13 -16 -12 -17 4 -4 9 7 17 15 17 17 0 8 -8 3 -21 -13z"/>
<path d="M3299 1443 c-13 -16 -12 -17 4 -4 16 13 21 21 13 21 -2 0 -10 -8 -17
-17z"/>
<path d="M725 1430 c10 -11 20 -20 23 -20 3 0 -3 9 -13 20 -10 11 -20 20 -23
20 -3 0 3 -9 13 -20z"/>
<path d="M720 1405 c13 -14 26 -25 28 -25 3 0 -5 11 -18 25 -13 14 -26 25 -28
25 -3 0 5 -11 18 -25z"/>
<path d="M3234 1398 l-29 -33 33 29 c30 28 37 36 29 36 -2 0 -16 -15 -33 -32z"/>
<path d="M3245 1378 l-40 -43 43 40 c23 21 42 40 42 42 0 8 -9 0 -45 -39z"/>
<path d="M1465 1340 c44 -22 87 -37 95 -34 59 22 128 25 219 10 124 -19 416
-19 481 0 52 16 148 18 184 4 20 -7 36 -4 73 13 l48 22 -125 3 c-91 2 -145 -2
-198 -14 -63 -15 -81 -15 -141 -4 -61 11 -76 11 -133 -5 -63 -17 -66 -17 -152
5 -75 20 -103 22 -190 16 -90 -6 -158 0 -221 18 -11 4 16 -12 60 -34z"/>
<path d="M815 1330 c21 -22 41 -40 44 -40 3 0 -13 18 -34 40 -21 22 -41 40
-44 40 -3 0 13 -18 34 -40z"/>
<path d="M800 1318 c41 -45 50 -53 50 -45 0 2 -21 23 -47 47 l-48 45 45 -47z"/>
<path d="M1162 1343 c2 -27 -71 -135 -85 -126 -7 4 -7 0 2 -10 17 -21 31 -22
31 -2 0 9 12 34 27 57 l28 41 7 -29 c4 -16 11 -55 15 -88 l8 -58 52 76 c48 71
50 77 33 86 -16 8 -18 7 -14 -4 6 -16 -25 -76 -38 -76 -4 0 -8 17 -9 38 -1 55
-12 83 -36 99 -20 13 -22 13 -21 -4z"/>
<path d="M2762 1320 c-59 -38 -62 -41 -50 -63 12 -22 12 -22 18 7 3 16 10 31
15 33 15 4 88 -114 81 -132 -4 -12 -2 -13 12 -6 32 18 57 40 45 41 -7 0 -30
28 -52 62 -33 52 -37 64 -25 71 8 5 22 6 30 3 10 -4 14 -1 12 6 -8 22 -24 18
-86 -22z"/>
<path d="M3114 1278 l-29 -33 33 29 c30 28 37 36 29 36 -2 0 -16 -15 -33 -32z"/>
<path d="M3125 1258 l-40 -43 43 40 c39 36 47 45 39 45 -2 0 -21 -19 -42 -42z"/>
<path d="M910 1245 c13 -14 26 -25 28 -25 3 0 -5 11 -18 25 -13 14 -26 25 -28
25 -3 0 5 -11 18 -25z"/>
<path d="M1715 1255 c121 -35 359 -43 500 -16 36 6 31 8 -50 15 -49 4 -112 7
-140 6 -112 -4 -194 -3 -275 3 l-85 7 50 -15z"/>
<path d="M900 1225 c13 -14 26 -25 28 -25 3 0 -5 11 -18 25 -13 14 -26 25 -28
25 -3 0 5 -11 18 -25z"/>
<path d="M2570 1220 c-19 -11 -29 -19 -22 -20 16 0 75 -127 66 -142 -4 -7 1
-8 17 -3 31 10 57 24 43 25 -15 0 -68 126 -60 145 7 19 -1 18 -44 -5z"/>
<path d="M1396 1216 c7 -18 -45 -146 -60 -146 -6 -1 4 -7 23 -15 39 -17 44
-18 37 -6 -9 14 46 140 63 144 10 2 2 10 -23 20 -46 20 -47 20 -40 3z"/>
<path d="M3039 1213 c-13 -16 -12 -17 4 -4 16 13 21 21 13 21 -2 0 -10 -8 -17
-17z"/>
<path d="M950 1216 c0 -2 8 -10 18 -17 15 -13 16 -12 3 4 -13 16 -21 21 -21
13z"/>
<path d="M3049 1193 c-13 -16 -12 -17 4 -4 16 13 21 21 13 21 -2 0 -10 -8 -17
-17z"/>
<path d="M940 1196 c0 -2 8 -10 18 -17 15 -13 16 -12 3 4 -13 16 -21 21 -21
13z"/>
<path d="M2999 1183 c-13 -16 -12 -17 4 -4 9 7 17 15 17 17 0 8 -8 3 -21 -13z"/>
<path d="M990 1186 c0 -2 8 -10 18 -17 15 -13 16 -12 3 4 -13 16 -21 21 -21
13z"/>
<path d="M3009 1163 c-13 -16 -12 -17 4 -4 9 7 17 15 17 17 0 8 -8 3 -21 -13z"/>
<path d="M980 1166 c0 -2 14 -14 30 -26 17 -12 30 -19 30 -16 0 2 -13 14 -30
26 -16 12 -30 19 -30 16z"/>
<path d="M1561 1142 c5 -15 15 -61 22 -102 l12 -75 49 63 c26 35 57 71 68 81
19 18 19 19 -5 23 -18 4 -23 1 -21 -11 4 -17 -51 -90 -60 -80 -3 3 -7 29 -10
58 -4 59 -2 56 -38 65 -25 6 -26 5 -17 -22z"/>
<path d="M2405 1162 c-86 -10 -84 -91 3 -108 41 -8 59 -29 42 -49 -17 -20 -32
-19 -64 6 -29 23 -30 21 -17 -14 8 -21 14 -23 47 -18 24 4 44 15 57 33 19 25
19 29 4 51 -10 15 -31 27 -59 33 -33 7 -43 14 -43 29 0 26 31 31 56 9 15 -13
19 -14 19 -3 0 25 -14 34 -45 31z"/>
<path d="M1090 1116 c0 -3 9 -10 20 -16 11 -6 20 -8 20 -6 0 3 -9 10 -20 16
-11 6 -20 8 -20 6z"/>
<path d="M1826 1022 l1 -87 64 0 c59 0 64 2 67 23 l4 24 -22 -22 c-31 -31 -64
-23 -68 18 -2 24 1 32 12 32 9 0 16 -8 17 -17 1 -28 17 16 18 47 0 22 -1 23
-10 8 -16 -29 -29 -21 -29 18 0 32 2 35 23 28 12 -3 30 -13 40 -22 15 -14 17
-13 17 5 0 24 -24 33 -90 33 l-45 0 1 -88z"/>
<path d="M2085 1087 c3 -12 7 -53 8 -90 2 -65 3 -67 29 -67 25 0 26 2 21 40
-3 22 -3 40 1 40 4 0 20 -16 37 -35 30 -34 62 -45 73 -26 4 5 3 11 -1 13 -5 2
-19 15 -32 30 -24 27 -24 28 -6 48 15 17 16 24 7 45 -11 23 -17 25 -77 25 -63
0 -65 -1 -60 -23z m90 -22 c0 -23 -5 -31 -22 -33 -20 -3 -23 1 -23 33 0 32 3
36 23 33 17 -2 22 -10 22 -33z"/>
<path d="M2864 1094 c-18 -14 -18 -15 4 -4 12 6 22 13 22 15 0 8 -5 6 -26 -11z"/>
<path d="M2904 1094 c-18 -14 -18 -15 4 -4 12 6 22 13 22 15 0 8 -5 6 -26 -11z"/>
<path d="M1140 1086 c0 -3 9 -10 20 -16 11 -6 20 -8 20 -6 0 3 -9 10 -20 16
-11 6 -20 8 -20 6z"/>
<path d="M2770 1045 c-36 -19 -61 -34 -57 -35 10 0 127 59 127 65 0 7 2 8 -70
-30z"/>
<path d="M2854 1064 c-18 -14 -18 -15 4 -4 12 6 22 13 22 15 0 8 -5 6 -26 -11z"/>
<path d="M2980 1039 c0 -24 -12 -42 -55 -84 -30 -30 -55 -61 -55 -69 0 -25 50
-64 113 -89 l59 -24 -113 -7 c-197 -12 -472 -48 -584 -77 -22 -6 -66 -22 -97
-36 -53 -24 -58 -28 -57 -57 1 -23 3 -26 6 -8 5 25 24 27 68 8 l30 -14 -29
-11 c-43 -17 -268 -32 -368 -25 l-88 7 0 33 c0 19 -4 34 -9 34 -5 0 -18 3 -28
7 -10 3 -15 3 -11 -2 4 -4 0 -14 -10 -22 -15 -13 -15 -14 11 -10 22 3 27 0 27
-16 0 -17 -5 -19 -32 -14 -18 3 -41 8 -50 12 -16 7 -18 -2 -18 -95 0 -88 -2
-101 -15 -96 -25 9 -242 44 -347 55 -54 6 -200 10 -325 9 l-228 -1 216 -8
c119 -4 265 -12 325 -18 124 -13 352 -49 365 -57 5 -3 9 -25 9 -50 0 -41 2
-44 28 -44 19 0 23 3 13 9 -11 7 -13 35 -9 134 2 70 6 128 8 130 3 3 41 1 85
-3 94 -10 340 -4 405 9 25 5 48 6 51 3 4 -4 10 -66 14 -138 l7 -131 -48 -13
c-27 -7 -96 -16 -154 -20 l-105 -9 125 4 c69 3 142 9 163 15 36 11 37 13 37
55 0 24 4 46 9 50 13 7 225 51 346 70 68 11 216 19 465 25 357 8 430 15 455
42 9 10 10 55 6 176 -7 183 -7 184 -81 180 -42 -3 -45 -5 -48 -34 -3 -30 -6
-32 -57 -39 -221 -27 -478 15 -515 86 -10 17 -6 26 30 62 23 23 50 52 61 65
20 26 26 72 9 72 -5 0 -10 -14 -10 -31z m574 -195 c20 -8 21 -28 1 -44 -12
-10 -15 -10 -15 4 0 23 -17 20 -23 -5 -8 -30 -42 -21 -43 11 0 14 1 28 3 33 5
9 55 9 77 1z m0 -126 c3 -29 6 -87 7 -128 l2 -74 -34 -15 c-25 -10 -107 -16
-309 -22 -451 -14 -596 -28 -877 -85 l-33 -6 0 100 0 101 -30 16 c-16 8 -37
15 -47 15 -32 0 1 18 82 43 187 58 440 86 850 94 165 2 302 7 304 9 2 2 21 4
42 4 l37 0 6 -52z"/>
<path d="M2952 610 l2 -51 35 3 c20 2 36 9 39 18 4 12 2 13 -9 3 -26 -25 -39
-15 -39 32 0 33 -4 45 -15 45 -12 0 -15 -11 -13 -50z"/>
<path d="M3050 610 c0 -39 4 -50 16 -50 11 0 14 6 9 20 -5 14 -2 20 9 20 9 0
16 7 16 15 0 9 -6 12 -16 8 -13 -5 -15 -2 -9 15 5 16 2 22 -9 22 -12 0 -16
-11 -16 -50z"/>
<path d="M3090 656 c0 -2 7 -6 15 -10 8 -3 15 -1 15 4 0 6 -7 10 -15 10 -8 0
-15 -2 -15 -4z"/>
<path d="M3149 643 c6 -10 24 -34 40 -53 l30 -35 1 33 c0 18 -4 31 -9 28 -5
-3 -16 5 -25 19 -19 29 -53 36 -37 8z"/>
<path d="M3210 649 c0 -5 5 -7 10 -4 6 3 10 8 10 11 0 2 -4 4 -10 4 -5 0 -10
-5 -10 -11z"/>
<path d="M3268 646 c-34 -17 -36 -60 -3 -82 21 -14 30 -15 48 -5 12 6 14 9 5
7 -30 -9 -48 5 -48 35 0 34 23 48 51 30 15 -9 19 -8 19 3 0 18 -44 26 -72 12z"/>
<path d="M2765 641 c-3 -6 -4 -28 -3 -51 3 -40 4 -41 37 -38 20 2 36 9 39 18
4 12 2 13 -9 3 -18 -18 -39 -16 -39 2 0 8 5 15 10 15 6 0 10 7 10 16 0 8 -4
12 -10 9 -5 -3 -10 1 -10 11 0 11 6 15 20 11 11 -3 20 -1 20 4 0 12 -57 12
-65 0z"/>
<path d="M2858 605 c3 -38 7 -45 25 -45 16 0 18 3 9 12 -7 7 -12 27 -12 45 0
20 -5 33 -13 33 -8 0 -11 -14 -9 -45z"/>
<path d="M3354 642 c2 -4 1 -26 -4 -50 -6 -35 -5 -42 9 -42 9 0 26 -3 37 -6
14 -4 23 0 27 10 5 13 2 15 -18 10 -20 -5 -25 -2 -25 12 0 14 2 16 9 6 6 -10
10 -9 14 7 3 14 0 21 -9 21 -8 0 -14 5 -14 10 0 14 23 13 38 -2 9 -9 12 -8 12
4 0 15 -27 28 -63 28 -10 0 -16 -3 -13 -8z"/>
<path d="M2667 622 c-21 -23 -22 -46 -1 -66 16 -17 59 -22 68 -8 2 4 -8 8 -22
7 -24 0 -27 4 -27 35 0 32 2 35 28 33 15 -1 27 2 27 8 0 16 -56 10 -73 -9z"/>
<path d="M2610 619 c0 -5 5 -7 10 -4 6 3 10 8 10 11 0 2 -4 4 -10 4 -5 0 -10
-5 -10 -11z"/>
<path d="M2550 613 c0 -13 68 -83 79 -83 17 0 13 15 -9 35 -11 10 -17 22 -13
28 3 6 1 7 -6 3 -6 -4 -14 0 -17 8 -6 16 -34 23 -34 9z"/>
<path d="M2467 603 c-11 -3 -16 -11 -13 -21 2 -9 7 -31 11 -48 6 -29 8 -31 37
-25 17 4 34 13 36 21 4 12 2 13 -9 3 -18 -18 -39 -16 -39 3 0 8 5 12 10 9 6
-3 10 3 10 14 0 14 -5 19 -15 15 -10 -4 -15 0 -15 11 0 12 6 16 20 12 11 -3
20 -1 20 4 0 9 -22 10 -53 2z"/>
<path d="M2920 575 c-7 -9 -8 -15 -2 -15 5 0 12 7 16 15 3 8 4 15 2 15 -2 0
-9 -7 -16 -15z"/>
<path d="M3100 569 c0 -5 5 -7 10 -4 6 3 10 8 10 11 0 2 -4 4 -10 4 -5 0 -10
-5 -10 -11z"/>
<path d="M3140 570 c0 -5 5 -10 11 -10 5 0 7 5 4 10 -3 6 -8 10 -11 10 -2 0
-4 -4 -4 -10z"/>
<path d="M2566 541 c-4 -7 -5 -15 -2 -18 9 -9 19 4 14 18 -4 11 -6 11 -12 0z"/>
<path d="M1150 1055 c0 -2 18 -14 40 -25 22 -11 40 -18 40 -15 0 2 -18 14 -40
25 -22 11 -40 18 -40 15z"/>
<path d="M1030 1019 c0 -28 10 -43 61 -91 38 -36 59 -65 57 -76 -4 -23 -116
-77 -200 -97 -69 -16 -223 -20 -340 -8 -66 6 -68 7 -68 34 0 52 -73 67 -115
24 -23 -22 -25 -31 -25 -122 0 -54 3 -122 7 -151 5 -49 9 -55 44 -72 43 -22
251 -40 262 -23 4 6 -31 12 -91 17 -53 3 -113 11 -133 16 l-36 10 1 129 1 129
220 -4 c523 -9 717 -10 660 -3 -33 4 -123 9 -201 11 l-141 3 78 36 c116 55
122 83 34 155 -38 31 -58 62 -60 96 0 3 -3 10 -7 14 -5 4 -8 -8 -8 -27z m-536
-205 c24 -9 19 -24 -8 -24 -13 0 -26 -4 -28 -10 -2 -6 -9 -6 -17 0 -12 7 -12
11 -2 24 14 17 30 20 55 10z m36 -50 c0 -10 -7 -14 -22 -12 -32 5 -35 28 -4
28 17 0 26 -5 26 -16z"/>
<path d="M2780 1025 c-14 -8 -20 -14 -14 -15 5 0 19 7 30 15 24 18 16 19 -16
0z"/>
<path d="M1290 1005 c14 -8 30 -14 35 -14 6 0 -1 6 -15 14 -14 8 -29 14 -35
14 -5 0 1 -6 15 -14z"/>
<path d="M1260 995 c14 -8 30 -14 35 -14 6 0 -1 6 -15 14 -14 8 -29 14 -35 14
-5 0 1 -6 15 -14z"/>
<path d="M1350 980 c8 -5 20 -10 25 -10 6 0 3 5 -5 10 -8 5 -19 10 -25 10 -5
0 -3 -5 5 -10z"/>
<path d="M2670 975 c-14 -8 -20 -14 -15 -14 6 0 21 6 35 14 14 8 21 14 15 14
-5 0 -21 -6 -35 -14z"/>
<path d="M1370 950 c8 -5 20 -10 25 -10 6 0 3 5 -5 10 -8 5 -19 10 -25 10 -5
0 -3 -5 5 -10z"/>
<path d="M1430 950 c8 -5 22 -9 30 -9 10 0 8 3 -5 9 -27 12 -43 12 -25 0z"/>
<path d="M2610 950 c-8 -5 -10 -10 -5 -10 6 0 17 5 25 10 8 5 11 10 5 10 -5 0
-17 -5 -25 -10z"/>
<path d="M2468 923 c7 -3 16 -2 19 1 4 3 -2 6 -13 5 -11 0 -14 -3 -6 -6z"/>
<path d="M2515 920 c-13 -5 -14 -9 -5 -9 8 0 24 4 35 9 13 5 14 9 5 9 -8 0
-24 -4 -35 -9z"/>
<path d="M1485 910 c27 -12 43 -12 25 0 -8 5 -22 9 -30 9 -10 0 -8 -3 5 -9z"/>
<path d="M1548 913 c7 -3 16 -2 19 1 4 3 -2 6 -13 5 -11 0 -14 -3 -6 -6z"/>
<path d="M2428 913 c7 -3 16 -2 19 1 4 3 -2 6 -13 5 -11 0 -14 -3 -6 -6z"/>
<path d="M1588 903 c6 -2 18 -2 25 0 6 3 1 5 -13 5 -14 0 -19 -2 -12 -5z"/>
<path d="M2388 903 c7 -3 16 -2 19 1 4 3 -2 6 -13 5 -11 0 -14 -3 -6 -6z"/>
<path d="M1548 893 c7 -3 16 -2 19 1 4 3 -2 6 -13 5 -11 0 -14 -3 -6 -6z"/>
<path d="M1638 893 c7 -3 16 -2 19 1 4 3 -2 6 -13 5 -11 0 -14 -3 -6 -6z"/>
<path d="M2338 893 c7 -3 16 -2 19 1 4 3 -2 6 -13 5 -11 0 -14 -3 -6 -6z"/>
<path d="M2438 893 c7 -3 16 -2 19 1 4 3 -2 6 -13 5 -11 0 -14 -3 -6 -6z"/>
<path d="M1588 883 c7 -3 16 -2 19 1 4 3 -2 6 -13 5 -11 0 -14 -3 -6 -6z"/>
<path d="M1683 883 c9 -2 23 -2 30 0 6 3 -1 5 -18 5 -16 0 -22 -2 -12 -5z"/>
<path d="M2288 883 c6 -2 18 -2 25 0 6 3 1 5 -13 5 -14 0 -19 -2 -12 -5z"/>
<path d="M2398 883 c7 -3 16 -2 19 1 4 3 -2 6 -13 5 -11 0 -14 -3 -6 -6z"/>
<path d="M1628 873 c6 -2 18 -2 25 0 6 3 1 5 -13 5 -14 0 -19 -2 -12 -5z"/>
<path d="M1743 873 c9 -2 23 -2 30 0 6 3 -1 5 -18 5 -16 0 -22 -2 -12 -5z"/>
<path d="M2223 873 c9 -2 23 -2 30 0 6 3 -1 5 -18 5 -16 0 -22 -2 -12 -5z"/>
<path d="M2348 873 c6 -2 18 -2 25 0 6 3 1 5 -13 5 -14 0 -19 -2 -12 -5z"/>
<path d="M1678 863 c6 -2 18 -2 25 0 6 3 1 5 -13 5 -14 0 -19 -2 -12 -5z"/>
<path d="M1838 863 c12 -2 32 -2 45 0 12 2 2 4 -23 4 -25 0 -35 -2 -22 -4z"/>
<path d="M2118 863 c12 -2 30 -2 40 0 9 3 -1 5 -23 4 -22 0 -30 -2 -17 -4z"/>
<path d="M2298 863 c7 -3 16 -2 19 1 4 3 -2 6 -13 5 -11 0 -14 -3 -6 -6z"/>
<path d="M1733 853 c9 -2 23 -2 30 0 6 3 -1 5 -18 5 -16 0 -22 -2 -12 -5z"/>
<path d="M2233 853 c9 -2 25 -2 35 0 9 3 1 5 -18 5 -19 0 -27 -2 -17 -5z"/>
<path d="M1823 843 c15 -2 37 -2 50 0 12 2 0 4 -28 4 -27 0 -38 -2 -22 -4z"/>
<path d="M2128 843 c12 -2 32 -2 45 0 12 2 2 4 -23 4 -25 0 -35 -2 -22 -4z"/>
<path d="M1983 833 c9 -2 25 -2 35 0 9 3 1 5 -18 5 -19 0 -27 -2 -17 -5z"/>
<path d="M1470 705 c68 -11 164 -34 215 -50 13 -4 12 -1 -5 8 -31 18 -208 57
-252 56 -19 -1 -1 -6 42 -14z"/>
<path d="M724 615 c-15 -23 -15 -27 0 -50 10 -15 26 -25 41 -25 15 0 31 10 41
25 15 23 15 27 0 50 -9 14 -21 25 -27 25 -8 0 -8 -5 0 -14 18 -21 10 -70 -11
-74 -22 -4 -36 44 -19 70 17 28 -6 22 -25 -7z"/>
<path d="M860 618 c0 -53 11 -69 44 -66 29 3 31 6 32 43 l1 40 -4 -37 c-3 -30
-8 -38 -24 -38 -16 0 -19 7 -19 40 0 29 -4 40 -15 40 -9 0 -15 -9 -15 -22z"/>
<path d="M990 637 c0 -1 18 -23 40 -47 34 -38 40 -41 40 -23 0 26 -41 73 -64
73 -9 0 -16 -1 -16 -3z"/>
<path d="M1120 629 c0 -5 5 -7 10 -4 6 3 10 8 10 11 0 2 -4 4 -10 4 -5 0 -10
-5 -10 -11z"/>
<path d="M1150 590 c0 -63 16 -65 26 -4 5 33 10 44 20 40 8 -3 14 -1 14 4 0 6
-13 10 -30 10 -29 0 -30 -1 -30 -50z"/>
<path d="M612 622 c-8 -6 -10 -22 -6 -54 5 -37 10 -45 24 -41 12 3 16 11 12
25 -3 14 -1 19 6 14 8 -5 12 0 12 13 0 15 -5 19 -16 14 -12 -4 -15 -2 -12 8 3
8 15 13 27 12 13 -2 20 1 16 7 -7 12 -45 13 -63 2z"/>
<path d="M1271 613 c-8 -17 -9 -23 0 -23 6 0 9 -7 5 -15 -3 -8 -1 -15 4 -15 6
0 10 -7 10 -15 0 -8 7 -15 16 -15 16 0 14 13 -11 75 l-12 30 -12 -22z"/>
<path d="M1380 601 c0 -10 -3 -33 -6 -50 -5 -24 -3 -31 10 -31 12 0 16 9 16
34 0 19 3 41 6 50 4 11 1 16 -10 16 -9 0 -16 -8 -16 -19z"/>
<path d="M1460 578 c0 -22 3 -28 9 -20 6 10 14 3 31 -25 l23 -38 11 45 c7 25
10 50 7 55 -3 6 -8 -3 -11 -18 l-5 -29 -23 31 c-29 40 -42 39 -42 -1z"/>
<path d="M1242 560 c-7 -11 -8 -20 -3 -20 9 0 24 30 18 36 -1 2 -8 -6 -15 -16z"/>
<path d="M1450 520 c0 -5 5 -10 11 -10 5 0 7 5 4 10 -3 6 -8 10 -11 10 -2 0
-4 -4 -4 -10z"/>
<path d="M1914 405 c-15 -23 -15 -27 0 -50 9 -14 22 -25 28 -25 9 0 9 3 0 12
-7 7 -12 24 -12 38 0 14 5 31 12 38 9 9 9 12 0 12 -6 0 -19 -11 -28 -25z"/>
<path d="M1968 418 c7 -7 12 -24 12 -38 0 -14 -5 -31 -12 -38 -9 -9 -9 -12 0
-12 6 0 19 11 28 25 15 23 15 27 0 50 -9 14 -22 25 -28 25 -9 0 -9 -3 0 -12z"/>
<path d="M2023 380 c0 -36 4 -50 13 -50 10 0 14 14 14 46 0 41 2 46 20 41 11
-3 20 -1 20 4 0 5 -15 9 -34 9 l-33 0 0 -50z"/>
<path d="M2060 380 c0 -5 5 -10 10 -10 6 0 10 5 10 10 0 6 -4 10 -10 10 -5 0
-10 -4 -10 -10z"/>
<path d="M1848 253 c6 -2 18 -2 25 0 6 3 1 5 -13 5 -14 0 -19 -2 -12 -5z"/>
</g>
</svg>
